<svg xmlns="http://www.w3.org/2000/svg">
    <defs>
        <symbol id="call" viewBox="0 0 32 32">
            <path fill-rule="evenodd" clip-rule="evenodd" d="M8.90529 2.67314L8.8531 2.6697C6.95603 2.582 4.43789 4.71659 3.47753 6.30979C2.4239 7.73694 2.40409 9.64093 3.3064 11.8009L3.44865 12.1268C5.73868 17.7373 14.283 26.2254 19.9134 28.5679L20.2291 28.7086C22.2205 29.5555 24.0501 29.5663 25.5466 28.6207L25.7174 28.5053L25.6663 28.5365C27.1664 27.6773 29.4 25.1004 29.3316 23.1608C29.263 22.3149 28.8822 21.6497 28.3002 21.0541C28.1096 20.8588 27.8557 20.6253 27.5626 20.3729L27.0965 19.9824C27.0149 19.9157 26.9316 19.8485 26.8469 19.7809L26.3261 19.3747C26.2377 19.3073 26.1486 19.2401 26.0593 19.1736L25.5242 18.7842C24.6382 18.1555 23.8059 17.6485 23.4012 17.5638C22.4758 17.3718 21.8571 17.5406 20.918 18.0546L20.5757 18.248C20.0489 18.5502 19.9232 18.5847 19.7686 18.5286C16.7899 17.312 14.6878 15.2106 13.4506 12.1832C13.4322 12.1309 13.4318 12.0731 13.4738 11.9623L13.5463 11.8009L13.6691 11.5702L13.7958 11.3475C14.4254 10.2533 14.6454 9.60899 14.4365 8.60182C14.3771 8.31768 14.1112 7.82489 13.7415 7.25104L13.4016 6.7423C13.3415 6.6552 13.2799 6.56718 13.2171 6.47863L12.8279 5.94382C12.7614 5.8546 12.6942 5.76558 12.6268 5.67715L12.2206 5.15644C12.1531 5.0718 12.0858 4.98849 12.0192 4.90686L11.6284 4.44044L11.2658 4.03251C11.1513 3.90827 11.0439 3.79676 10.9459 3.70095C10.3509 3.11968 9.68631 2.74003 8.90529 2.67314ZM8.64657 5.3384L8.70007 5.33467L8.67774 5.33008C8.742 5.33559 8.88915 5.41965 9.08185 5.60789L9.29349 5.82987L9.55075 6.12317L9.84085 6.47041L10.3096 7.05441L10.7803 7.66209L11.3364 8.40783L11.5551 8.71398L11.7171 8.95249C11.7817 9.05194 11.8204 9.11951 11.8258 9.14543C11.8453 9.23946 11.8333 9.33516 11.7517 9.51637L11.6455 9.72917L11.4394 10.0959C10.7766 11.2509 10.5614 12.0325 10.9626 13.1413C12.4903 16.8826 15.1189 19.5103 18.81 21.0164C19.8839 21.4072 20.6356 21.25 21.6607 20.6961L22.2983 20.3397C22.6084 20.1763 22.7335 20.1487 22.8571 20.1743L22.8962 20.1905L23.0494 20.283L23.2877 20.445L23.7668 20.7904L24.5413 21.3745L25.3431 22.0061L25.8785 22.4493L26.1713 22.7063C26.258 22.785 26.3327 22.8561 26.3926 22.9174C26.581 23.1102 26.6653 23.2575 26.6703 23.3179C26.6895 23.9008 25.2446 25.6013 24.4702 26.14L24.2272 26.2956C23.5386 26.7889 22.5872 26.811 21.2585 26.2482L20.9877 26.1278C18.6331 25.1477 15.6233 22.8804 12.8783 20.2335L12.1369 19.5029C9.44764 16.7944 7.10689 13.7887 6.03486 11.3933L5.89662 11.0705C5.23797 9.6207 5.18181 8.6231 5.60372 7.923L5.69443 7.78691C5.92164 7.42056 6.52664 6.7512 7.12835 6.24114C7.76594 5.70066 8.34103 5.38229 8.64657 5.3384Z"/>
            <g opacity="0.5">
            <path fill-rule="evenodd" clip-rule="evenodd" d="M18.8139 1.34152L18.6583 1.33325C17.9908 1.33654 17.4169 1.83978 17.3414 2.51938C17.26 3.25125 17.7874 3.9105 18.5192 3.99186C23.5076 4.54638 27.4474 8.48651 28.0082 13.4821C28.0904 14.2139 28.7502 14.7405 29.482 14.6584C30.2138 14.5762 30.7404 13.9164 30.6582 13.1846C29.9585 6.9514 25.0412 2.03377 18.8139 1.34152ZM18.9217 8.02464C18.1989 7.88376 17.4988 8.35549 17.3579 9.07826C17.217 9.80104 17.6887 10.5012 18.4115 10.6421C19.9025 10.9327 21.0673 12.0974 21.3579 13.5884C21.4988 14.3112 22.1989 14.7829 22.9217 14.6421C23.6445 14.5012 24.1162 13.801 23.9753 13.0783C23.4769 10.5213 21.4787 8.52304 18.9217 8.02464Z"/>
            </g>
        </symbol>
        <symbol id="document" viewBox="0 0 32 32">
            <path fill-rule="evenodd" clip-rule="evenodd" d="M20.8971 2.66669L11.0535 2.6719C6.78925 2.69863 4 5.64991 4 10.0059V21.9942C4 26.2679 6.67837 29.1882 10.7905 29.3281L11.1212 29.3333L20.945 29.3294C25.2095 29.3027 28 26.3501 28 21.9942V10.0059C28 5.62548 25.1849 2.66669 20.8971 2.66669ZM11.0626 5.33855L20.8978 5.33336C23.6817 5.33336 25.3333 7.06937 25.3333 10.0059V21.9942C25.3333 24.9129 23.6959 26.6455 20.9361 26.6628L11.1011 26.6667C8.31743 26.6667 6.66666 24.9311 6.66666 21.9942V10.0059C6.66666 7.08712 8.30287 5.35586 11.0626 5.33855Z"/>
            <g opacity="0.5">
            <path fill-rule="evenodd" clip-rule="evenodd" d="M9.33325 10.3333C9.33325 9.78103 9.78097 9.33331 10.3333 9.33331H13.6666C14.2189 9.33331 14.6666 9.78103 14.6666 10.3333V11C14.6666 11.5523 14.2189 12 13.6666 12H10.3333C9.78097 12 9.33325 11.5523 9.33325 11V10.3333ZM9.33325 15.6666C9.33325 15.1144 9.78097 14.6666 10.3333 14.6666H21.6666C22.2189 14.6666 22.6666 15.1144 22.6666 15.6666V16.3333C22.6666 16.8856 22.2189 17.3333 21.6666 17.3333H10.3333C9.78097 17.3333 9.33325 16.8856 9.33325 16.3333V15.6666ZM10.3333 20C9.78097 20 9.33325 20.4477 9.33325 21V21.6667C9.33325 22.2189 9.78097 22.6667 10.3333 22.6667H21.6666C22.2189 22.6667 22.6666 22.2189 22.6666 21.6667V21C22.6666 20.4477 22.2189 20 21.6666 20H10.3333Z"/>
            </g>
        </symbol>
        <symbol id="edit" viewBox="0 0 32 32">
            <path fill-rule="evenodd" clip-rule="evenodd" d="M24.5347 4.79279C21.8001 2.514 17.7577 2.78547 15.3524 5.40943L5.52522 16.13C4.39815 17.3595 3.77292 18.9669 3.77292 20.6348L3.77292 23.8936C3.77292 26.1027 5.56378 27.8936 7.77292 27.8936L10.6222 27.8936C12.5823 27.8936 14.4431 27.031 15.7098 25.5352L25.4586 14.0227C27.6944 11.3398 27.4021 7.3877 24.8448 5.0595L24.5347 4.79279ZM23.41 12.3156L13.6748 23.8119C12.9147 24.7094 11.7983 25.2269 10.6222 25.2269H7.7729C7.03652 25.2269 6.43957 24.63 6.43957 23.8936V20.6348C6.43957 19.6341 6.81471 18.6697 7.49095 17.9319L17.3182 7.21137C18.7613 5.63699 21.1868 5.47411 22.8275 6.84138L22.9193 6.91789C24.5454 8.27292 24.765 10.6895 23.41 12.3156Z"/>
            <g opacity="0.5">
            <rect x="18.6667" y="25.3333" width="10.6667" height="2.66667" rx="1"/>
            </g>
        </symbol>
        <symbol id="shape" viewBox="0 0 194 194">
            <path d="M6.55298 6.55292L2.05298 2.05292" stroke-width="4" stroke-linecap="round"/>
            <path d="M6.55292 26.5529L2 23.1221" stroke-width="4" stroke-linecap="round"/>
            <path d="M6.55292 46.5529L2.05054 44.0572" stroke-width="4" stroke-linecap="round"/>
            <path d="M6.55301 66.5529L2.04175 65.0871" stroke-width="4" stroke-linecap="round"/>
            <path d="M6.55294 86.5529L2.05005 86.0796" stroke-width="4" stroke-linecap="round"/>
            <path d="M6.55302 106.553L2.05908 107.105" stroke-width="4" stroke-linecap="round"/>
            <path d="M6.55286 126.553L2.06787 128.097" stroke-width="4" stroke-linecap="round"/>
            <path d="M6.55287 146.553L2.09473 149.127" stroke-width="4" stroke-linecap="round"/>
            <path d="M6.5529 166.553L2.06055 170.063" stroke-width="4" stroke-linecap="round"/>
            <path d="M6.55298 186.553L2.05298 191.053" stroke-width="4" stroke-linecap="round"/>
            <path d="M26.553 6.5529L23.0432 2.06055" stroke-width="4" stroke-linecap="round"/>
            <path d="M26.553 26.5529L23.053 23.0529" stroke-width="4" stroke-linecap="round"/>
            <path d="M26.5529 46.5529L23.0295 44.0859" stroke-width="4" stroke-linecap="round"/>
            <path d="M26.553 66.5529L23.0479 65.0651" stroke-width="4" stroke-linecap="round"/>
            <path d="M26.5529 86.5529L23.0518 86.0609" stroke-width="4" stroke-linecap="round"/>
            <path d="M26.5528 106.553L23.0608 107.106" stroke-width="4" stroke-linecap="round"/>
            <path d="M26.5529 126.553L23.0742 128.102" stroke-width="4" stroke-linecap="round"/>
            <path d="M26.553 146.553L23.0732 149.081" stroke-width="4" stroke-linecap="round"/>
            <path d="M26.553 166.553L23.053 170.053" stroke-width="4" stroke-linecap="round"/>
            <path d="M26.5529 186.553L23.1221 191.106" stroke-width="4" stroke-linecap="round"/>
            <path d="M46.5529 6.55293L43.979 2.09479" stroke-width="4" stroke-linecap="round"/>
            <path d="M46.5528 26.5529L44.0247 23.0732" stroke-width="4" stroke-linecap="round"/>
            <path d="M46.553 46.5529L44.053 44.0529" stroke-width="4" stroke-linecap="round"/>
            <path d="M46.553 66.5529L44.0281 65.0952" stroke-width="4" stroke-linecap="round"/>
            <path d="M46.553 86.5529L44.0503 86.0665" stroke-width="4" stroke-linecap="round"/>
            <path d="M46.5529 106.553L44.0591 107.083" stroke-width="4" stroke-linecap="round"/>
            <path d="M46.553 126.553L44.054 128.054" stroke-width="4" stroke-linecap="round"/>
            <path d="M46.553 146.553L44.053 149.053" stroke-width="4" stroke-linecap="round"/>
            <path d="M46.553 166.553L44.0859 170.076" stroke-width="4" stroke-linecap="round"/>
            <path d="M46.5528 186.553L44.0571 191.055" stroke-width="4" stroke-linecap="round"/>
            <path d="M66.5529 6.55292L65.0085 2.06793" stroke-width="4" stroke-linecap="round"/>
            <path d="M66.553 26.5529L65.0042 23.0742" stroke-width="4" stroke-linecap="round"/>
            <path d="M66.5528 46.5529L65.0513 44.0539" stroke-width="4" stroke-linecap="round"/>
            <path d="M66.553 66.5529L65.053 65.0529" stroke-width="4" stroke-linecap="round"/>
            <path d="M66.5528 86.5529L65.0491 86.0643" stroke-width="4" stroke-linecap="round"/>
            <path d="M66.5529 106.553L65.0579 107.068" stroke-width="4" stroke-linecap="round"/>
            <path d="M66.553 126.553L65.053 128.053" stroke-width="4" stroke-linecap="round"/>
            <path d="M66.553 146.553L65.0952 149.078" stroke-width="4" stroke-linecap="round"/>
            <path d="M66.5528 166.553L65.0649 170.058" stroke-width="4" stroke-linecap="round"/>
            <path d="M66.553 186.553L65.0872 191.064" stroke-width="4" stroke-linecap="round"/>
            <path d="M86.553 6.5529L86.0012 2.05896" stroke-width="4" stroke-linecap="round"/>
            <path d="M86.5529 26.5529L85.9998 23.0609" stroke-width="4" stroke-linecap="round"/>
            <path d="M86.5529 46.5529L86.0228 44.0591" stroke-width="4" stroke-linecap="round"/>
            <path d="M86.5528 66.5529L86.038 65.0579" stroke-width="4" stroke-linecap="round"/>
            <path d="M86.553 86.5529L86.053 86.0529" stroke-width="4" stroke-linecap="round"/>
            <path d="M86.553 106.553L86.053 107.053" stroke-width="4" stroke-linecap="round"/>
            <path d="M86.5529 126.553L86.0643 128.057" stroke-width="4" stroke-linecap="round"/>
            <path d="M86.5528 146.553L86.0663 149.056" stroke-width="4" stroke-linecap="round"/>
            <path d="M86.5529 166.553L86.0609 170.054" stroke-width="4" stroke-linecap="round"/>
            <path d="M86.553 186.553L86.0798 191.056" stroke-width="4" stroke-linecap="round"/>
            <path d="M106.553 6.55294L107.026 2.05005" stroke-width="4" stroke-linecap="round"/>
            <path d="M106.553 26.5529L107.045 23.0518" stroke-width="4" stroke-linecap="round"/>
            <path d="M106.553 46.5529L107.039 44.0502" stroke-width="4" stroke-linecap="round"/>
            <path d="M106.553 66.5529L107.041 65.0492" stroke-width="4" stroke-linecap="round"/>
            <path d="M106.553 86.5529L107.053 86.0529" stroke-width="4" stroke-linecap="round"/>
            <path d="M106.553 106.553L107.053 107.053" stroke-width="4" stroke-linecap="round"/>
            <path d="M106.553 126.553L107.068 128.048" stroke-width="4" stroke-linecap="round"/>
            <path d="M106.553 146.553L107.083 149.047" stroke-width="4" stroke-linecap="round"/>
            <path d="M106.553 166.553L107.106 170.045" stroke-width="4" stroke-linecap="round"/>
            <path d="M106.553 186.553L107.105 191.047" stroke-width="4" stroke-linecap="round"/>
            <path d="M126.553 6.55295L128.019 2.04169" stroke-width="4" stroke-linecap="round"/>
            <path d="M126.553 26.5529L128.041 23.0477" stroke-width="4" stroke-linecap="round"/>
            <path d="M126.553 46.5529L128.011 44.028" stroke-width="4" stroke-linecap="round"/>
            <path d="M126.553 66.5529L128.053 65.0529" stroke-width="4" stroke-linecap="round"/>
            <path d="M126.553 86.5529L128.048 86.0381" stroke-width="4" stroke-linecap="round"/>
            <path d="M126.553 106.553L128.057 107.042" stroke-width="4" stroke-linecap="round"/>
            <path d="M126.553 126.553L128.053 128.053" stroke-width="4" stroke-linecap="round"/>
            <path d="M126.553 146.553L128.055 149.052" stroke-width="4" stroke-linecap="round"/>
            <path d="M126.553 166.553L128.102 170.032" stroke-width="4" stroke-linecap="round"/>
            <path d="M126.553 186.553L128.097 191.038" stroke-width="4" stroke-linecap="round"/>
            <path d="M146.553 6.55292L149.049 2.05054" stroke-width="4" stroke-linecap="round"/>
            <path d="M146.553 26.5529L149.02 23.0296" stroke-width="4" stroke-linecap="round"/>
            <path d="M146.553 46.5529L149.053 44.0529" stroke-width="4" stroke-linecap="round"/>
            <path d="M146.553 66.5529L149.052 65.0513" stroke-width="4" stroke-linecap="round"/>
            <path d="M146.553 86.5529L149.047 86.0229" stroke-width="4" stroke-linecap="round"/>
            <path d="M146.553 106.553L149.056 107.039" stroke-width="4" stroke-linecap="round"/>
            <path d="M146.553 126.553L149.078 128.011" stroke-width="4" stroke-linecap="round"/>
            <path d="M146.553 146.553L149.053 149.053" stroke-width="4" stroke-linecap="round"/>
            <path d="M146.553 166.553L149.081 170.033" stroke-width="4" stroke-linecap="round"/>
            <path d="M146.553 186.553L149.127 191.011" stroke-width="4" stroke-linecap="round"/>
            <path d="M166.553 6.55292L169.984 2" stroke-width="4" stroke-linecap="round"/>
            <path d="M166.553 26.5529L170.053 23.0529" stroke-width="4" stroke-linecap="round"/>
            <path d="M166.553 46.5529L170.033 44.0248" stroke-width="4" stroke-linecap="round"/>
            <path d="M166.553 66.5529L170.032 65.0041" stroke-width="4" stroke-linecap="round"/>
            <path d="M166.553 86.5529L170.045 85.9998" stroke-width="4" stroke-linecap="round"/>
            <path d="M166.553 106.553L170.054 107.045" stroke-width="4" stroke-linecap="round"/>
            <path d="M166.553 126.553L170.058 128.041" stroke-width="4" stroke-linecap="round"/>
            <path d="M166.553 146.553L170.076 149.02" stroke-width="4" stroke-linecap="round"/>
            <path d="M166.553 166.553L170.053 170.053" stroke-width="4" stroke-linecap="round"/>
            <path d="M166.553 186.553L170.063 191.045" stroke-width="4" stroke-linecap="round"/>
            <path d="M186.553 6.55292L191.053 2.05292" stroke-width="4" stroke-linecap="round"/>
            <path d="M186.553 26.5529L191.045 23.0431" stroke-width="4" stroke-linecap="round"/>
            <path d="M186.553 46.5529L191.011 43.979" stroke-width="4" stroke-linecap="round"/>
            <path d="M186.553 66.5529L191.038 65.0086" stroke-width="4" stroke-linecap="round"/>
            <path d="M186.553 86.5529L191.047 86.0011" stroke-width="4" stroke-linecap="round"/>
            <path d="M186.553 106.553L191.056 107.026" stroke-width="4" stroke-linecap="round"/>
            <path d="M186.553 126.553L191.064 128.019" stroke-width="4" stroke-linecap="round"/>
            <path d="M186.553 146.553L191.055 149.049" stroke-width="4" stroke-linecap="round"/>
            <path d="M186.553 166.553L191.106 169.984" stroke-width="4" stroke-linecap="round"/>
            <path d="M186.553 186.553L191.053 191.053" stroke-width="4" stroke-linecap="round"/>
        </symbol>
        <symbol id="phone" viewBox="0 0 24 24">
            <path d="M23.9886 18.9406C24.0394 19.3305 23.9207 19.6695 23.6329 19.9576L20.2537 23.3134C20.1013 23.4829 19.9023 23.6271 19.6567 23.7456C19.4111 23.8643 19.1698 23.9406 18.9327 23.9744C18.9158 23.9744 18.8648 23.9788 18.7801 23.9872C18.6955 23.9957 18.5854 24 18.4499 24C18.128 24 17.6071 23.9449 16.8873 23.8347C16.1674 23.7245 15.2867 23.4533 14.2451 23.0211C13.2032 22.5889 12.0218 21.9406 10.7007 21.0762C9.37955 20.212 7.97364 19.0254 6.48309 17.5169C5.29743 16.3474 4.31502 15.2288 3.53587 14.161C2.75671 13.0932 2.13001 12.1059 1.65574 11.1991C1.18143 10.2924 0.825732 9.47032 0.588598 8.73304C0.351465 7.99575 0.190553 7.36016 0.105863 6.82626C0.0211726 6.29236 -0.0127036 5.87287 0.00423452 5.56779C0.0211726 5.2627 0.0296416 5.09321 0.0296416 5.05931C0.0635178 4.82203 0.139739 4.5805 0.258306 4.33474C0.376872 4.08898 0.520846 3.88982 0.690227 3.73728L4.06937 0.355932C4.30651 0.118644 4.57752 0 4.8824 0C5.1026 0 5.29739 0.0635592 5.46677 0.190678C5.63615 0.317796 5.78012 0.474575 5.89869 0.661016L8.61725 5.82202C8.76969 6.09321 8.81204 6.38982 8.74428 6.71185C8.67653 7.03389 8.53256 7.30507 8.31236 7.52541L7.06742 8.77117C7.03354 8.80507 7.0039 8.86015 6.97849 8.93643C6.95308 9.0127 6.94038 9.07625 6.94038 9.1271C7.00813 9.48303 7.16057 9.88981 7.39771 10.3474C7.60096 10.7542 7.91432 11.25 8.33777 11.8347C8.76122 12.4195 9.36252 13.0932 10.1417 13.8559C10.9039 14.6356 11.5814 15.2415 12.1742 15.6737C12.767 16.1058 13.2626 16.4237 13.6606 16.6271C14.0587 16.8305 14.3635 16.9534 14.5752 16.9956L14.8927 17.0592C14.9266 17.0592 14.9818 17.0465 15.0579 17.0211C15.1341 16.9956 15.1892 16.966 15.2231 16.9321L16.6713 15.4575C16.9763 15.1863 17.3319 15.0507 17.7384 15.0507C18.0264 15.0507 18.255 15.1015 18.4244 15.2033H18.4497L23.3533 18.1016C23.7091 18.3221 23.9208 18.6017 23.9886 18.9406Z"/>
        </symbol>
        <symbol id="tg" viewBox="0 0 28 24">
            <path d="M0.489128 11.5079L6.87 13.8785L9.33979 21.7848C9.49782 22.2912 10.1199 22.4784 10.5328 22.1423L14.0896 19.2561C14.4624 18.9537 14.9935 18.9386 15.3831 19.2202L21.7983 23.8563C22.24 24.1759 22.8657 23.935 22.9765 23.4037L27.676 0.902248C27.7969 0.321911 27.2241 -0.162224 26.6689 0.0514974L0.481652 10.1073C-0.164595 10.3554 -0.158965 11.2662 0.489128 11.5079ZM8.94176 12.6166L21.4124 4.97122C21.6365 4.83422 21.8671 5.13588 21.6746 5.31358L11.3827 14.8364C11.021 15.1716 10.7876 15.6202 10.7215 16.1071L10.371 18.6932C10.3245 19.0385 9.83723 19.0728 9.74151 18.7386L8.39317 14.0227C8.23874 13.4848 8.46379 12.9102 8.94176 12.6166Z"/>
        </symbol>
        <symbol id="viber" viewBox="0 0 22 24">
            <path d="M21.756 13.894C22.4714 7.87226 21.4123 4.07062 19.502 2.35113L19.503 2.35014C16.4197 -0.586275 6.0069 -1.02089 2.31815 2.48202C0.661613 4.19551 0.0781277 6.71029 0.0141841 9.82354C-0.0497595 12.9378 -0.125693 18.7717 5.31051 20.3543H5.31551L5.31051 22.7711C5.31051 22.7711 5.27354 23.7503 5.89899 23.9471C6.61436 24.1789 6.93808 23.7243 9.16311 21.0666C12.8838 21.3893 15.7413 20.65 16.066 20.5421C16.8174 20.2903 21.0686 19.7278 21.756 13.894ZM9.52979 19.3661C9.52979 19.3661 7.17487 22.3025 6.44251 23.0649C6.20272 23.3126 5.93996 23.2897 5.94395 22.7981C5.94395 22.4754 5.96194 18.7856 5.96194 18.7856C1.353 17.4648 1.62476 12.4972 1.67472 9.89848C1.72468 7.29877 2.20026 5.16965 3.60302 3.73591C6.83916 0.70159 15.9681 1.37999 18.2941 3.56606C21.1376 6.08684 20.1254 13.2086 20.1314 13.4513C19.547 18.321 16.102 18.6298 15.4686 18.8406C15.1978 18.9305 12.685 19.5769 9.52979 19.3661Z"/>
            <path d="M10.8329 4.30615C10.4483 4.30615 10.4483 4.90562 10.8329 4.91062C13.8173 4.9336 16.2751 7.01376 16.3021 10.8294C16.3021 11.232 16.8916 11.227 16.8866 10.8244H16.8856C16.8536 6.71303 14.17 4.32913 10.8329 4.30615Z"/>
            <path d="M14.758 10.197C14.749 10.5947 15.3375 10.6137 15.3425 10.211C15.3915 7.94403 13.9937 6.07667 11.367 5.87985C10.9824 5.85187 10.9424 6.45634 11.3261 6.48431C13.604 6.65716 14.804 8.21179 14.758 10.197Z"/>
            <path d="M14.1287 12.776C13.6352 12.4903 13.1326 12.6681 12.9248 12.9489L12.4902 13.5114C12.2694 13.7971 11.8568 13.7592 11.8568 13.7592C8.84541 12.9629 8.04012 9.81165 8.04012 9.81165C8.04012 9.81165 8.00315 9.38503 8.27891 9.15623L8.82243 8.70662C9.09419 8.49081 9.26604 7.97127 8.98928 7.46072C8.24993 6.1249 7.75337 5.66431 7.50059 5.31062C7.23483 4.97791 6.83518 4.90298 6.41955 5.12778H6.41056C5.54632 5.63333 4.60015 6.5795 4.90289 7.55364C5.41943 8.58073 6.36859 11.8548 9.39392 14.3287C10.8157 15.4986 13.0657 16.6976 14.0208 16.9743L14.0298 16.9883C14.971 17.302 15.8862 16.3189 16.3748 15.4287V15.4217C16.5916 14.9911 16.5196 14.5834 16.2029 14.3167C15.6414 13.7692 14.7942 13.1647 14.1287 12.776Z"/>
            <path d="M11.7785 8.10999C12.7386 8.16594 13.2042 8.6675 13.2542 9.69759C13.2722 10.1002 13.8566 10.0723 13.8387 9.66961C13.7747 8.3248 13.0733 7.57546 11.8104 7.50552C11.4258 7.48254 11.3898 8.08701 11.7785 8.10999Z"/>
        </symbol>
        <symbol id="wa" viewBox="0 0 24 24">
            <path fill-rule="evenodd" clip-rule="evenodd" d="M20.5033 3.48773C18.2472 1.23984 15.2467 0.00126346 12.0501 0C5.46351 0 0.102833 5.33464 0.100197 11.8918C0.0993182 13.9878 0.649604 16.0338 1.69528 17.8373L0 24L6.33483 22.3463C8.08018 23.2937 10.0453 23.793 12.0453 23.7938H12.0502C18.6362 23.7938 23.9973 18.4585 24 11.9013C24.0013 8.72359 22.7595 5.73561 20.5033 3.48773ZM12.0502 21.7852H12.0462C10.264 21.7845 8.51592 21.308 6.991 20.4074L6.62829 20.1932L2.86916 21.1746L3.87257 17.527L3.63638 17.153C2.64215 15.5792 2.11702 13.7602 2.1178 11.8925C2.11998 6.4425 6.5756 2.00857 12.0542 2.00857C14.707 2.00958 17.2008 3.0391 19.0761 4.90747C20.9513 6.77583 21.9834 9.25933 21.9824 11.9005C21.9801 17.3509 17.5246 21.7852 12.0502 21.7852ZM17.4983 14.3822C17.1997 14.2334 15.7317 13.5145 15.458 13.4154C15.1843 13.3162 14.9853 13.2666 14.7862 13.5641C14.5872 13.8616 14.0149 14.5309 13.8407 14.7292C13.6666 14.9276 13.4924 14.9524 13.1938 14.8036C12.8952 14.6549 11.9332 14.3411 10.7927 13.3287C9.90508 12.5409 9.30578 11.5677 9.13162 11.2702C8.95745 10.9727 9.1131 10.8119 9.26257 10.6637C9.39687 10.5306 9.56114 10.3167 9.71044 10.1431C9.85971 9.96962 9.90947 9.84568 10.009 9.64738C10.1085 9.44905 10.0588 9.2755 9.98412 9.12677C9.90947 8.97804 9.31236 7.5154 9.06351 6.92045C8.82117 6.341 8.57498 6.4194 8.39171 6.41033C8.21774 6.40172 8.01848 6.39987 7.81946 6.39987C7.6204 6.39987 7.29693 6.47425 7.02322 6.77171C6.74954 7.06921 5.97823 7.78812 5.97823 9.25072C5.97823 10.7133 7.04811 12.1263 7.19742 12.3246C7.34669 12.523 9.30285 15.5245 12.2981 16.8116C13.0105 17.1178 13.5666 17.3006 14.0003 17.4376C14.7156 17.6637 15.3665 17.6318 15.881 17.5553C16.4546 17.47 17.6475 16.8364 17.8964 16.1423C18.1452 15.4482 18.1452 14.8532 18.0705 14.7293C17.9959 14.6053 17.7968 14.5309 17.4983 14.3822Z"/>
        </symbol>
        <symbol id="input__tel" viewBox="0 0 21 21">
            <path fill-rule="evenodd" clip-rule="evenodd" d="M5.67909 0.00503177L5.63995 0.00245155C4.21715 -0.0633277 2.32854 1.53762 1.60827 2.73252C0.818049 3.80288 0.803188 5.23088 1.47992 6.85088L1.58661 7.09531C3.30413 11.3032 9.7124 17.6692 13.9352 19.4261L14.172 19.5316C15.6655 20.1668 17.0377 20.1749 18.1601 19.4657L18.2882 19.3792L18.2499 19.4026C19.3749 18.7582 21.0502 16.8255 20.9988 15.3708C20.9474 14.7364 20.6618 14.2374 20.2253 13.7907C20.0823 13.6443 19.8919 13.4692 19.6721 13.2798L19.3225 12.987C19.2613 12.937 19.1988 12.8865 19.1353 12.8359L18.7447 12.5312C18.6784 12.4806 18.6116 12.4303 18.5446 12.3804L18.1433 12.0883C17.4788 11.6168 16.8545 11.2366 16.551 11.173C15.857 11.0291 15.393 11.1556 14.6887 11.5411L14.4319 11.6862C14.0368 11.9128 13.9425 11.9387 13.8266 11.8966C11.5926 10.9842 10.016 9.40811 9.08807 7.13758C9.0743 7.09833 9.07394 7.05503 9.10548 6.97194L9.15983 6.85084L9.25192 6.67782L9.34696 6.51082C9.81917 5.69013 9.98415 5.20691 9.82749 4.45154C9.78294 4.23843 9.58351 3.86884 9.30624 3.43846L9.05132 3.0569C9.00625 2.99157 8.96004 2.92556 8.91292 2.85915L8.62103 2.45804C8.57115 2.39112 8.5208 2.32436 8.47021 2.25803L8.1656 1.8675C8.11494 1.80403 8.0645 1.74154 8.01449 1.68032L7.72141 1.3305L7.44951 1.02456C7.3636 0.93138 7.28301 0.847745 7.20955 0.775888C6.76327 0.339934 6.26485 0.0551974 5.67909 0.00503177ZM5.48505 2.00398L5.52518 2.00118L5.50843 1.99774C5.55663 2.00186 5.66699 2.06491 5.81151 2.20609L5.97024 2.37258L6.16319 2.59255L6.38076 2.85298L6.73233 3.29098L7.08537 3.74674L7.50245 4.30605L7.66643 4.53566L7.78792 4.71454C7.83644 4.78913 7.86542 4.83981 7.86949 4.85925C7.88411 4.92977 7.87509 5.00155 7.81388 5.13745L7.73422 5.29706L7.57968 5.57208C7.08256 6.43833 6.92116 7.02459 7.22205 7.85614C8.36789 10.6621 10.3393 12.6329 13.1076 13.7625C13.9131 14.0556 14.4768 13.9377 15.2457 13.5222L15.7239 13.2549C15.9564 13.1324 16.0502 13.1117 16.1429 13.1309L16.1723 13.1431L16.2872 13.2124L16.4659 13.334L16.8253 13.5929L17.4061 14.0311L18.0075 14.5048L18.409 14.8372L18.6286 15.0299C18.6936 15.0889 18.7497 15.1422 18.7946 15.1882C18.9359 15.3328 18.9991 15.4433 19.0029 15.4886C19.0172 15.9258 17.9336 17.2012 17.3528 17.6052L17.1705 17.7219C16.6541 18.0918 15.9405 18.1085 14.944 17.6863L14.7409 17.596C12.975 16.8609 10.7176 15.1605 8.65883 13.1753L8.10279 12.6273C6.08585 10.596 4.3303 8.34174 3.52627 6.54517L3.42259 6.30308C2.92861 5.2157 2.88648 4.4675 3.20291 3.94243L3.27095 3.84035C3.44135 3.5656 3.89511 3.06357 4.34639 2.68103C4.82458 2.27567 5.2559 2.03689 5.48505 2.00398Z"/>
        </symbol>
        <symbol id="input__name" viewBox="0 0 24 24">
            <g>
            <path fill-rule="evenodd" clip-rule="evenodd" d="M12.0011 14C11.6555 13.9997 11.3185 14.0039 10.9903 14.0128L10.3457 14.037C10.0294 14.0521 9.72207 14.0721 9.42397 14.0968L8.84014 14.1527C5.12621 14.5578 3 15.7832 3 17.9973C3 20.1155 4.83487 21.3164 8.22291 21.778L8.78589 21.8464L9.37584 21.9021C9.57695 21.9185 9.78251 21.9328 9.99248 21.9451L10.6355 21.9756C10.7449 21.9797 10.8554 21.9832 10.9669 21.9862L11.6491 21.9984L11.9999 22C12.236 22 12.4678 21.9981 12.6953 21.9941L13.3647 21.9762C13.4741 21.9721 13.5824 21.9676 13.6896 21.9626L14.3196 21.9261C14.5252 21.9119 14.7264 21.8955 14.9231 21.8771L15.4996 21.8154C19.0656 21.3839 20.9994 20.1773 20.9997 18.0002C21.0001 15.6165 18.5454 14.3844 14.2811 14.0775L13.6596 14.0399C13.2372 14.019 12.7987 14.0064 12.3446 14.0019L12.0011 14ZM11.9991 16C16.6025 16.0047 18.9999 16.8754 18.9997 17.9998C18.9996 18.6393 18.3164 19.1807 16.9128 19.5383L16.5121 19.6312C16.0237 19.7341 15.462 19.8176 14.8259 19.879L14.2624 19.9261C14.1654 19.933 14.0669 19.9395 13.9669 19.9455L13.3483 19.9756C13.2421 19.9796 13.1344 19.9832 13.0252 19.9862L12.3512 19.9985L12.0003 20C11.7633 19.9999 11.5326 19.9978 11.308 19.9936L10.6527 19.975C10.5466 19.9709 10.442 19.9664 10.3389 19.9613L9.73885 19.9251L9.17537 19.8777C6.35829 19.6045 5 18.8971 5 17.9973C5 17.0732 6.62025 16.3178 9.73875 16.079L10.341 16.0403C10.8575 16.0133 11.4103 15.9994 11.9991 16Z"/>
            <g opacity="0.5">
            <path fill-rule="evenodd" clip-rule="evenodd" d="M12 2C9.23858 2 7 4.23858 7 7C7 9.76142 9.23858 12 12 12C14.7614 12 17 9.76142 17 7C17 4.23858 14.7614 2 12 2ZM12 4C13.6569 4 15 5.34315 15 7C15 8.65685 13.6569 10 12 10C10.3431 10 9 8.65685 9 7C9 5.34315 10.3431 4 12 4Z"/>
            </g>
            </g>
        </symbol>
        <symbol id="square" viewBox="0 0 24 24">
            <path fill-rule="evenodd" clip-rule="evenodd" d="M10.9998 2C11.552 2 11.9998 2.44772 11.9998 3C11.9998 3.51284 11.6137 3.93551 11.1164 3.99327L10.9998 4H7.78197C5.53219 4 4.09184 5.46979 4.00401 7.79863L3.99976 8.02667V15.9733C3.99976 18.3604 5.36487 19.9015 7.56633 19.9954L7.78197 20H16.2166C18.4723 20 19.908 18.5337 19.9955 16.2017L19.9998 15.9733V13C19.9998 12.4477 20.4475 12 20.9998 12C21.5126 12 21.9353 12.386 21.993 12.8834L21.9998 13V15.9733C21.9998 19.4311 19.7869 21.8863 16.4511 21.9962L16.2166 22H7.78197C4.3953 22 2.10566 19.6231 2.00333 16.2129L1.99976 15.9733V8.02667C1.99976 4.5721 4.21804 2.1138 7.54787 2.00384L7.78197 2H10.9998Z"/>
            <g opacity="0.5">
            <path fill-rule="evenodd" clip-rule="evenodd" d="M20.0488 4.72064L19.0718 3.74372C19.0249 3.69673 18.9763 3.65132 18.9263 3.60756C17.6796 2.51635 15.7843 2.64246 14.693 3.88923L10.0869 9.15204C9.29047 10.062 8.85147 11.2301 8.85147 12.4394L8.85147 12.9394C8.85147 14.044 9.7469 14.9394 10.8515 14.9394H11.3524C12.5622 14.9394 13.7309 14.5003 14.6414 13.7036L19.903 9.09969C19.9531 9.05585 20.0017 9.01036 20.0488 8.96328C21.2203 7.79171 21.2203 5.89222 20.0488 4.72064ZM18.6346 6.13486C19.0251 6.52538 19.0251 7.15855 18.6346 7.54907L18.586 7.59454L13.3243 12.1984C12.7785 12.6761 12.0777 12.9394 11.3524 12.9394H10.8515L10.8515 12.4394C10.8515 11.7147 11.1146 11.0146 11.5919 10.4692L16.198 5.20643C16.5618 4.79084 17.1935 4.74881 17.6091 5.11254L17.6576 5.15793L18.6346 6.13486Z"/>
            </g>
        </symbol>
        <symbol id="calendar" viewBox="0 0 24 24">
            <path fill-rule="evenodd" clip-rule="evenodd" d="M6.99976 2C6.99976 1.44772 7.44747 1 7.99976 1C8.55204 1 8.99976 1.44772 8.99976 2V3H14.9998V2C14.9998 1.44772 15.4475 1 15.9998 1C16.552 1 16.9998 1.44772 16.9998 2V3.03373C20.0936 3.31474 22.0098 5.33654 21.9998 8.53697V17.4538C21.9998 20.9131 19.763 23 16.2288 23H7.77072C4.23985 23 1.99976 20.8785 1.99976 17.3799V8.53697C1.99976 5.34053 3.91778 3.31951 6.99976 3.03473V2ZM6.99976 5.04437C5.03997 5.28257 3.99976 6.47611 3.99976 8.53697V17.3799C3.99976 19.7489 5.32082 21 7.77072 21H16.2288C18.6882 21 19.9998 19.7763 19.9998 17.4538L19.9998 8.53385C20.0062 6.46856 18.9692 5.27744 16.9998 5.04296V6C16.9998 6.55228 16.552 7 15.9998 7C15.4475 7 14.9998 6.55228 14.9998 6V5H8.99976V6C8.99976 6.55228 8.55204 7 7.99976 7C7.44747 7 6.99976 6.55228 6.99976 6V5.04437Z"/>
            <g opacity="0.5">
            <path fill-rule="evenodd" clip-rule="evenodd" d="M3.99976 9C3.44747 9 2.99976 9.44772 2.99976 10C2.99976 10.5523 3.44747 11 3.99976 11H19.9998C20.552 11 20.9998 10.5523 20.9998 10C20.9998 9.44772 20.552 9 19.9998 9H3.99976ZM7.99361 13C7.44473 13 6.99976 13.4477 6.99976 14C6.99976 14.5523 7.44473 15 7.99361 15H8.0059C8.55479 15 8.99976 14.5523 8.99976 14C8.99976 13.4477 8.55479 13 8.0059 13H7.99361ZM10.9998 14C10.9998 13.4477 11.4447 13 11.9936 13H12.0059C12.5548 13 12.9998 13.4477 12.9998 14C12.9998 14.5523 12.5548 15 12.0059 15H11.9936C11.4447 15 10.9998 14.5523 10.9998 14ZM14.9998 14C14.9998 13.4477 15.4448 13 15.9937 13H16.0059C16.5548 13 16.9998 13.4477 16.9998 14C16.9998 14.5523 16.5548 15 16.0059 15H15.9937C15.4448 15 14.9998 14.5523 14.9998 14ZM14.9998 18C14.9998 17.4477 15.4448 17 15.9937 17H16.0059C16.5548 17 16.9998 17.4477 16.9998 18C16.9998 18.5523 16.5548 19 16.0059 19H15.9937C15.4448 19 14.9998 18.5523 14.9998 18ZM11.9936 17C11.4447 17 10.9998 17.4477 10.9998 18C10.9998 18.5523 11.4447 19 11.9936 19H12.0059C12.5548 19 12.9998 18.5523 12.9998 18C12.9998 17.4477 12.5548 17 12.0059 17H11.9936ZM6.99976 18C6.99976 17.4477 7.44473 17 7.99361 17H8.0059C8.55479 17 8.99976 17.4477 8.99976 18C8.99976 18.5523 8.55479 19 8.0059 19H7.99361C7.44473 19 6.99976 18.5523 6.99976 18Z"/>
            </g>
        </symbol>
        <symbol id="wallet" viewBox="0 0 24 24">
            <path fill-rule="evenodd" clip-rule="evenodd" d="M16.0643 3H7.93517C4.66552 3 1.99976 5.56619 1.99976 8.75106V15.2489C1.99976 18.4338 4.66551 21 7.93517 21H16.0643C19.3339 21 21.9998 18.4338 21.9998 15.2489V14V9V8.75106C21.9998 5.5662 19.3339 3 16.0643 3ZM19.9207 8C19.5561 6.29372 17.9742 5 16.0643 5H7.93517C5.75341 5 3.99976 6.68815 3.99976 8.75106V15.2489C3.99976 17.3119 5.7534 19 7.93517 19H16.0643C18.2461 19 19.9998 17.3118 19.9998 15.2489V15H17.3955C15.5108 14.9988 14.0009 13.4239 13.9998 11.5001C13.9998 9.64077 15.4114 8.10662 17.2089 8.00532L17.3961 8H19.9207ZM19.9998 13H17.3961L17.2632 12.9931C16.5625 12.921 16.0002 12.2882 15.9998 11.4995C15.9998 10.6627 16.6347 10.0005 17.3968 10H19.9998V13Z"/>
            <g opacity="0.5">
            <rect x="6.99976" y="8" width="5" height="2" rx="1"/>
            </g>
        </symbol>
    </defs>
</svg>
